<mxfile host="app.diagrams.net" modified="2024-05-17T11:26:33.746Z" agent="Mozilla/5.0 (Windows NT 10.0; Win64; x64; rv:125.0) Gecko/20100101 Firefox/125.0" version="24.4.4" etag="JhEIe9jd2E33iiSKffbs" type="github">
  <diagram name="Pagina-1" id="mwvZFhLqi_4R-zlfRmPy">
    <mxGraphModel>
      <root>
        <mxCell id="0" />
        <mxCell id="1" parent="0" />
      </root>
    </mxGraphModel>
  </diagram>
</mxfile>
